<?xml version="1.0" encoding="utf-8" ?><svg xmlns="http://www.w3.org/2000/svg" xmlns:xlink="http://www.w3.org/1999/xlink" width="1024" height="1024" viewBox="0 0 512 512"><defs><linearGradient id="gradient_bg" gradientUnits="userSpaceOnUse" x1="450" y1="450" x2="50" y2="50"><stop offset="0" stop-color="#2B1F43"/><stop offset="1" stop-color="#6B498E"/></linearGradient><linearGradient id="gradient_1" gradientUnits="userSpaceOnUse" x1="305.80884" y1="374.70596" x2="205.54059" y2="133.48611"><stop offset="0" stop-color="#683DA0"/><stop offset="1" stop-color="#B07DCB"/></linearGradient></defs><rect x="0" y="0" width="512" height="512" fill="url(#gradient_bg)"/><path fill="url(#gradient_1)" d="M200.311 135.585C228.922 122.16 261.419 119.523 291.82 128.159C352.811 145.485 392.661 203.977 386.463 267.077C380.265 330.178 329.796 379.799 266.6 384.927C203.404 390.055 145.595 349.22 129.305 287.945C113.014 226.67 142.912 162.518 200.311 135.585ZM334.866 325.006C337.93 323.684 340.012 321.651 342.397 319.369C375.214 287.981 376.714 233.761 342.72 202.528C339.971 200.002 337.869 196.779 333.741 197.292C328.373 200.278 330.258 203.51 334.08 206.751C368.268 235.606 366.526 289.756 331.665 317.357C328.027 320.237 329.879 325.737 334.866 325.006ZM321.739 305.792C329.45 302.413 336.808 289.934 339.742 282.366C346.288 265.481 345.111 245.675 335.356 230.237C332.859 226.285 325.095 215.28 320.215 215.525C309.616 218.189 323.237 228.035 325.431 231.379C337.658 250.013 338.723 271.97 325.241 290.773C323.45 293.271 308.195 305.795 321.739 305.792ZM308.644 285.978C325.198 277.863 324.372 248.118 309.142 235.767C308.001 234.841 306.743 234.728 305.296 234.761C292.123 241.358 321.516 249.45 307.917 273.17C305.368 277.616 300.386 279.705 304.352 284.974C306.205 285.845 306.605 286.109 308.644 285.978Z"/><path fill="#BD7ED1" d="M200.311 135.585C228.922 122.16 261.419 119.523 291.82 128.159C291.542 128.206 269.833 124.211 266.641 123.905C265.034 123.751 261.464 126.285 259.237 124.732L259.223 124.084L259.055 124.414C257.378 127.665 252.16 128.709 251.812 127.085C248.288 129.026 245.002 131.263 241.41 133.123C238.961 134.391 235.732 133.519 233.067 134.272C231.695 134.588 230.218 135.741 228.906 136.109C225.584 136.894 217.013 136.383 213.523 135.57C212.102 135.24 210.57 138.127 209.385 135.288C208.015 134.652 203.687 135.895 202.881 135.442L203.119 134.622L202.805 134.74L202.899 135.452C202.396 135.714 200.856 135.666 200.311 135.585Z"/><path fill="#E6EAEC" d="M157.179 230.012C157.083 207.795 163.396 210.216 183.924 210.241L254.311 210.255C262.599 210.249 270.949 210.159 279.228 210.348C293.275 210.669 292.743 219.381 292.581 230.012L292.581 238.9L292.601 297.963C292.574 311.963 284.776 313.404 273.087 313.396L177.251 313.409C170.804 313.421 165.64 314.413 160.813 309.432C155.08 303.813 157.18 292.04 157.187 284.247L157.179 238.9L157.179 230.012Z"/><path fill="#E6EAEC" d="M157.179 230.012C157.083 207.795 163.396 210.216 183.924 210.241L254.311 210.255C262.599 210.249 270.949 210.159 279.228 210.348C293.275 210.669 292.743 219.381 292.581 230.012L292.581 238.9C277.808 238.696 262.403 238.901 247.594 238.9L157.179 238.9L157.179 230.012Z"/><path fill="#CDD2D4" d="M157.179 230.012C167.915 230.374 181.186 230.011 192.078 230.012L262.988 230.013C272.262 230.011 283.52 229.678 292.581 230.012L292.581 238.9C277.808 238.696 262.403 238.901 247.594 238.9L157.179 238.9L157.179 230.012Z"/><path fill="#CDD2D4" d="M199.987 218.269C204.859 217.954 206.877 223.638 201.916 225.832C196.238 227.036 194.052 220.917 199.987 218.269Z"/><path fill="#CDD2D4" d="M184.543 218.269C189.861 217.605 190.984 223.638 186.24 225.832C180.322 225.861 179.468 219.814 184.543 218.269Z"/><path fill="#AC559A" d="M170.732 218.397C172.644 218.18 174.376 219.538 174.621 221.446C174.866 223.355 173.534 225.106 171.629 225.379C170.372 225.559 169.116 225.048 168.341 224.042C167.566 223.036 167.394 221.691 167.889 220.522C168.384 219.353 169.47 218.541 170.732 218.397Z"/><path fill="#7682FB" d="M206.31 276.424C208.486 276.309 210.488 276.371 212.658 276.424L212.658 287.475C209.296 288.578 206.922 289.621 204.138 291.846C200.219 286.9 197.936 282.789 197.528 276.424C200.353 276.349 203.466 276.415 206.31 276.424Z"/><path fill="#7682FB" d="M204.138 256.891C208.248 260.038 208.292 260.35 213.502 262.468C212.93 265.793 212.8 269.255 212.658 272.622L207.517 272.622L197.528 272.622C198.185 266.769 200.293 261.38 204.138 256.891Z"/><path fill="#7682FB" d="M244.753 256.891C248.068 260.918 250.393 267.413 250.902 272.622C247.701 272.751 245.082 272.717 241.875 272.622C240.075 272.652 238.251 272.63 236.449 272.622C236.392 268.803 236.237 266.217 235.428 262.468C239.096 260.554 241.388 259.31 244.753 256.891Z"/><path fill="#7682FB" d="M236.449 276.424C240.955 276.587 246.33 276.434 250.902 276.424C249.832 281.502 249.21 284.076 246.734 288.746L244.753 291.846C241.374 289.835 239.131 288.762 235.428 287.475C235.927 283.913 236.221 280.026 236.449 276.424Z"/><path fill="#7682FB" d="M216.196 276.424L232.829 276.424C232.671 280.204 232.463 282.306 231.603 285.978C230.835 286.236 226.926 285.711 225.793 285.646C222.659 285.467 219.93 285.641 216.816 285.978C216.291 282.289 216.248 280.132 216.196 276.424Z"/><path fill="#7682FB" d="M231.603 263.664L231.788 263.616C232.606 264.462 232.772 271.092 232.829 272.622L217.23 272.622C214.868 272.507 216.523 265.458 216.816 263.664C222.618 264.055 225.833 264.004 231.603 263.664Z"/><path fill="#7682FB" d="M221.856 289.238C224.603 288.952 228.757 289.154 231.603 289.238C230.377 293.422 229.542 296.202 226.158 299.1C220.093 302.372 218.105 293.422 217.23 289.238C218.569 289.172 220.458 289.245 221.856 289.238Z"/><path fill="#7682FB" d="M223.6 248.213C227.263 249.606 230.167 256.537 231.603 259.881C229.01 260.275 227.735 260.367 225.061 260.464C222.33 260.763 219.898 260.389 217.23 259.881C218.238 255.14 220.235 251.746 223.6 248.213Z"/><path fill="#7682FB" d="M217.23 248.213C219.38 248.028 214.917 256.39 214.261 258.716L209.62 256.891L206.31 254.553C210.294 251.105 212.438 250.258 217.23 248.213Z"/><path fill="#7682FB" d="M229.663 248.213C234.48 249.04 238.599 250.852 241.875 254.553C241.114 255.077 240.28 255.574 239.492 256.063C237.801 256.95 236.976 257.572 235.428 258.716C233.321 254.395 232.906 251.864 229.663 248.213Z"/><path fill="#7682FB" d="M235.428 290.916C237.692 292.156 239.559 292.799 241.875 294.313L236.449 298.46L230.48 300.172C232.318 297.361 233.888 293.962 235.428 290.916Z"/><path fill="#7682FB" d="M213.502 290.916C213.428 290.854 216.7 299.125 217.23 300.172C215.199 299.664 214.497 299.367 212.658 298.46C210.251 297.314 208.394 295.945 206.31 294.313C209.017 292.928 210.634 292.035 213.502 290.916Z"/></svg>
